<?xml version="1.0" encoding="UTF-8"?>
<svg width="97px" height="39px" viewBox="0 0 97 39" version="1.1" xmlns="http://www.w3.org/2000/svg" xmlns:xlink="http://www.w3.org/1999/xlink">
    <!-- Generator: Sketch 47.1 (45422) - http://www.bohemiancoding.com/sketch -->
    <title>logo/dark</title>
    <desc>Created with Sketch.</desc>
    <defs></defs>
    <g id="Page-1" stroke="none" stroke-width="1" fill="none" fill-rule="evenodd">
        <g id="FRONTENT-ZADANIE2" transform="translate(-132.000000, -16.000000)" fill="#263396">
            <g id="//TOP">
                <path d="M135.362,46.75 L132,46.75 L132,16 L135.362,16 L135.362,46.75 Z M154.956273,23.831 C158.181622,23.831 160.921761,24.992655 163.176773,27.316 C165.431784,29.6393449 166.559273,32.4273171 166.559273,35.68 C166.559273,38.9326829 165.44545,41.7138218 163.217773,44.0235 C160.990095,46.3331782 158.236289,47.488 154.956273,47.488 C151.676256,47.488 148.915617,46.3331782 146.674273,44.0235 C144.432928,41.7138218 143.312273,38.9326829 143.312273,35.68 C143.312273,32.4273171 144.439761,29.6393449 146.694773,27.316 C148.949784,24.992655 151.70359,23.831 154.956273,23.831 Z M154.956273,44.249 C157.224951,44.249 159.158765,43.4221749 160.757773,41.7685 C162.356781,40.1148251 163.156273,38.1195117 163.156273,35.7825 C163.156273,33.4454883 162.343114,31.4228419 160.716773,29.7145 C159.090431,28.0061581 157.16345,27.152 154.935773,27.152 C152.708095,27.152 150.787947,28.0061581 149.175273,29.7145 C147.562598,31.4228419 146.756273,33.4523216 146.756273,35.803 C146.756273,38.1536784 147.535265,40.1489918 149.093273,41.789 C150.65128,43.4290082 152.605594,44.249 154.956273,44.249 Z M197.264545,41.502 C197.264545,44.4540148 197.011714,46.6406596 196.506045,48.062 C196.000376,49.4833404 195.23505,50.6859951 194.210045,51.67 C193.18504,52.6540049 191.955052,53.3988308 190.520045,53.9045 C189.085038,54.4101692 187.506554,54.663 185.784545,54.663 C179.962516,54.663 176.081221,52.2030246 174.140545,47.283 L177.748545,47.283 C179.333886,50.1256809 181.971527,51.547 185.661545,51.547 C187.35622,51.547 188.873205,51.2190033 190.212545,50.563 C191.551885,49.9069967 192.494876,49.0323388 193.041545,47.939 C193.588214,46.8456612 193.861545,45.164678 193.861545,42.896 L193.861545,42.691 C192.79554,43.8936727 191.510886,44.8093302 190.007545,45.438 C188.504204,46.0666698 186.94622,46.381 185.333545,46.381 C182.108196,46.381 179.409056,45.2740111 177.236045,43.06 C175.063034,40.8459889 173.990212,38.2356817 174.017545,35.229 C173.990212,32.085651 175.124534,29.4001778 177.420545,27.1725 C179.716557,24.9448222 182.443029,23.831 185.600045,23.831 C188.757061,23.831 191.510867,25.1156538 193.861545,27.685 L193.861545,24.405 L197.264545,24.405 L197.264545,41.502 Z M193.984545,35.229 C193.984545,32.8783216 193.19872,30.9376743 191.627045,29.407 C190.05537,27.8763257 188.135223,27.111 185.866545,27.111 C183.4612,27.111 181.445386,27.9378251 179.819045,29.5915 C178.192704,31.2451749 177.379545,33.1653224 177.379545,35.352 C177.379545,37.5386776 178.158537,39.3904924 179.716545,40.9075 C181.274553,42.4245076 183.269866,43.183 185.702545,43.183 C188.135224,43.183 190.123704,42.4381741 191.668045,40.9485 C193.212386,39.4588259 193.984545,37.5523449 193.984545,35.229 Z M216.858818,23.831 C220.084167,23.831 222.824306,24.992655 225.079318,27.316 C227.334329,29.6393449 228.461818,32.4273171 228.461818,35.68 C228.461818,38.9326829 227.347995,41.7138218 225.120318,44.0235 C222.89264,46.3331782 220.138834,47.488 216.858818,47.488 C213.578801,47.488 210.818162,46.3331782 208.576818,44.0235 C206.335473,41.7138218 205.214818,38.9326829 205.214818,35.68 C205.214818,32.4273171 206.342306,29.6393449 208.597318,27.316 C210.852329,24.992655 213.606135,23.831 216.858818,23.831 Z M216.858818,44.249 C219.127496,44.249 221.06131,43.4221749 222.660318,41.7685 C224.259326,40.1148251 225.058818,38.1195117 225.058818,35.7825 C225.058818,33.4454883 224.245659,31.4228419 222.619318,29.7145 C220.992976,28.0061581 219.065995,27.152 216.838318,27.152 C214.61064,27.152 212.690492,28.0061581 211.077818,29.7145 C209.465143,31.4228419 208.658818,33.4523216 208.658818,35.803 C208.658818,38.1536784 209.43781,40.1489918 210.995818,41.789 C212.553825,43.4290082 214.508139,44.249 216.858818,44.249 Z" id="logo/dark"></path>
            </g>
        </g>
    </g>
</svg>