<?xml version="1.0" encoding="UTF-8"?>
<svg width="35px" height="35px" viewBox="0 0 35 35" version="1.1" xmlns="http://www.w3.org/2000/svg" xmlns:xlink="http://www.w3.org/1999/xlink">
    <!-- Generator: Sketch 47.1 (45422) - http://www.bohemiancoding.com/sketch -->
    <title>Github@1x</title>
    <desc>Created with Sketch.</desc>
    <defs></defs>
    <g id="Page-1" stroke="none" stroke-width="1" fill="none" fill-rule="evenodd">
        <g id="FRONTENT-ZADANIE2" transform="translate(-1210.000000, -687.000000)" fill="#FFFFFF">
            <g id="//HEADER" transform="translate(132.000000, 133.000000)">
                <g id="social-media" transform="translate(669.000000, 509.000000)">
                    <g id="social-media-icon" transform="translate(238.000000, 45.000000)">
                        <g id="Github" transform="translate(171.243243, 0.000000)">
                            <path d="M3,0 L31.5945946,0 L31.5945946,-4.4408921e-16 C33.2514488,3.66629817e-15 34.5945946,1.34314575 34.5945946,3 L34.5945946,31.5945946 L34.5945946,31.5945946 C34.5945946,33.2514488 33.2514488,34.5945946 31.5945946,34.5945946 L3,34.5945946 L3,34.5945946 C1.34314575,34.5945946 3.43777239e-15,33.2514488 -4.4408921e-16,31.5945946 L0,3 L-4.4408921e-16,3 C-6.46995335e-16,1.34314575 1.34314575,-1.39730022e-16 3,-4.4408921e-16 L3,0 Z M26.6392638,15.2041249 C26.7355861,14.5949047 26.7956791,13.9269201 26.8108108,13.1778904 C26.8050076,9.96612135 25.2668338,8.82964756 24.9708705,8.29686448 C25.4067614,5.86334471 24.898683,4.75641577 24.6623788,4.37748275 C23.7908139,4.06826474 21.6300704,5.17557315 20.4494714,5.95506927 C18.5245983,5.39187398 14.456771,5.44684366 12.9312883,6.10084193 C10.1166813,4.08637112 8.62802448,4.39352913 8.62802448,4.39352913 C8.62802448,4.39352913 7.66561503,6.11851463 8.37360562,8.64207843 C7.44753397,9.82164975 6.7572784,10.6556277 6.7572784,12.8677508 C6.7572784,13.3975523 6.79019936,13.8981884 6.84606196,14.3798507 C7.6435954,18.5713161 10.9663351,20.3795693 14.2302292,20.6913895 C13.7390722,21.0644135 13.1494235,21.7703457 13.0678533,22.5883314 C12.4507072,22.9871597 11.2093102,23.1190002 10.2439721,22.815637 C8.89139221,22.3884564 8.37360562,19.7112052 6.34807133,20.0931198 C5.90979403,20.1750864 5.99689629,20.4640296 6.37643652,20.7103632 C6.99352836,21.1104384 7.57471628,21.6077677 8.02270175,22.6719786 C8.36677194,23.4890427 9.0904366,24.9478535 11.3784166,24.9478535 C12.286699,24.9478535 12.9228817,24.8405705 12.9228817,24.8405705 C12.9228817,24.8405705 12.9401829,26.9225879 12.9401829,27.7346104 C12.9401829,28.669095 11.6784475,28.931475 11.6784475,29.3797977 C11.6784475,29.5580968 12.0960611,29.5750106 12.4316706,29.5750106 C13.0949168,29.5750106 14.4748856,29.02282 14.4748856,28.0515264 C14.4748856,27.2797282 14.4871971,24.6860699 14.4871971,24.2318382 C14.4871971,23.2394023 15.0193019,22.9234079 15.0193019,22.9234079 C15.0193019,22.9234079 15.0844387,28.2212602 14.8912518,28.9315292 C14.66471,29.7668081 14.2543097,29.6481408 14.2543097,30.0198638 C14.2543097,30.5746022 15.9133203,30.1554991 16.463594,28.9412329 C16.8892886,27.9928161 16.6986508,22.7974764 16.6986508,22.7974764 L17.1424601,22.7878269 C17.1424601,22.7878269 17.1475582,25.1672443 17.1322638,26.2542779 C17.1162643,27.3801806 17.0000376,28.8035376 17.6690871,29.475317 C18.1082321,29.9171345 19.4535987,30.6924022 19.4535987,29.9839221 C19.4535987,29.57333 18.5114733,29.2340251 18.5114733,28.1216208 L18.5114733,22.9971887 C19.0838208,22.9971887 19.2021085,24.6816246 19.2021085,24.6816246 L19.4084205,27.8110475 C19.4084205,27.8110475 19.2714215,28.9529966 20.6426042,29.4295632 C21.1266563,29.5990259 22.1621752,29.645105 22.210716,29.3606613 C22.2593653,29.0755129 20.9638412,28.6538618 20.9515297,27.77001 C20.9448588,27.2316974 20.9756645,26.9166247 20.9756645,24.5751547 C20.9756645,22.2349858 20.6611527,21.3692947 19.5651612,20.6794089 C22.7434174,20.3533855 26.0445713,18.9346365 26.6392638,15.2041249 Z" id="Combined-Shape"></path>
                        </g>
                    </g>
                </g>
            </g>
        </g>
    </g>
</svg>