<?xml version="1.0" encoding="UTF-8"?>
<svg width="97px" height="39px" viewBox="0 0 97 39" version="1.1" xmlns="http://www.w3.org/2000/svg" xmlns:xlink="http://www.w3.org/1999/xlink">
    <!-- Generator: Sketch 47.1 (45422) - http://www.bohemiancoding.com/sketch -->
    <title>logo/Light</title>
    <desc>Created with Sketch.</desc>
    <defs></defs>
    <g id="Page-1" stroke="none" stroke-width="1" fill="none" fill-rule="evenodd">
        <g id="FRONTENT-ZADANIE2" transform="translate(-133.000000, -1438.000000)" fill="#FFFFFF">
            <g id="//Footer" transform="translate(133.000000, 1438.000000)">
                <path d="M3.362,30.75 L0,30.75 L0,0 L3.362,0 L3.362,30.75 Z M22.9562725,7.831 C26.181622,7.831 28.9217612,8.99265505 31.1767725,11.316 C33.4317838,13.6393449 34.5592725,16.4273171 34.5592725,19.68 C34.5592725,22.9326829 33.4454503,25.7138218 31.2177725,28.0235 C28.9900947,30.3331782 26.2362889,31.488 22.9562725,31.488 C19.6762561,31.488 16.9156171,30.3331782 14.6742725,28.0235 C12.432928,25.7138218 11.3122725,22.9326829 11.3122725,19.68 C11.3122725,16.4273171 12.4397612,13.6393449 14.6947725,11.316 C16.9497838,8.99265505 19.7035896,7.831 22.9562725,7.831 Z M22.9562725,28.249 C25.2249505,28.249 27.1587645,27.4221749 28.7577725,25.7685 C30.3567805,24.1148251 31.1562725,22.1195117 31.1562725,19.7825 C31.1562725,17.4454883 30.343114,15.4228419 28.7167725,13.7145 C27.090431,12.0061581 25.1634503,11.152 22.9357725,11.152 C20.7080947,11.152 18.7879472,12.0061581 17.1752725,13.7145 C15.5625978,15.4228419 14.7562725,17.4523216 14.7562725,19.803 C14.7562725,22.1536784 15.5352647,24.1489918 17.0932725,25.789 C18.6512803,27.4290082 20.6055941,28.249 22.9562725,28.249 Z M65.264545,25.502 C65.264545,28.4540148 65.0117142,30.6406596 64.506045,32.062 C64.0003758,33.4833404 63.2350501,34.6859951 62.210045,35.67 C61.1850399,36.6540049 59.9550522,37.3988308 58.520045,37.9045 C57.0850378,38.4101692 55.5065536,38.663 53.784545,38.663 C47.9625159,38.663 44.0812214,36.2030246 42.140545,31.283 L45.748545,31.283 C47.3338863,34.1256809 49.9715266,35.547 53.661545,35.547 C55.3562202,35.547 56.873205,35.2190033 58.212545,34.563 C59.5518851,33.9069967 60.4948756,33.0323388 61.041545,31.939 C61.5882144,30.8456612 61.861545,29.164678 61.861545,26.896 L61.861545,26.691 C60.7955397,27.8936727 59.5108859,28.8093302 58.007545,29.438 C56.5042042,30.0666698 54.9462198,30.381 53.333545,30.381 C50.1081956,30.381 47.4090559,29.2740111 45.236045,27.06 C43.0630342,24.8459889 41.9902116,22.2356817 42.017545,19.229 C41.9902116,16.085651 43.1245335,13.4001778 45.420545,11.1725 C47.7165565,8.9448222 50.4430292,7.831 53.600045,7.831 C56.7570608,7.831 59.5108666,9.11565382 61.861545,11.685 L61.861545,8.405 L65.264545,8.405 L65.264545,25.502 Z M61.984545,19.229 C61.984545,16.8783216 61.1987195,14.9376743 59.627045,13.407 C58.0553705,11.8763257 56.135223,11.111 53.866545,11.111 C51.4611997,11.111 49.4453865,11.9378251 47.819045,13.5915 C46.1927036,15.2451749 45.379545,17.1653224 45.379545,19.352 C45.379545,21.5386776 46.1585372,23.3904924 47.716545,24.9075 C49.2745528,26.4245076 51.2698662,27.183 53.702545,27.183 C56.1352239,27.183 58.123704,26.4381741 59.668045,24.9485 C61.2123861,23.4588259 61.984545,21.5523449 61.984545,19.229 Z M84.8588175,7.831 C88.084167,7.831 90.8243063,8.99265505 93.0793175,11.316 C95.3343288,13.6393449 96.4618175,16.4273171 96.4618175,19.68 C96.4618175,22.9326829 95.3479953,25.7138218 93.1203175,28.0235 C90.8926397,30.3331782 88.1388339,31.488 84.8588175,31.488 C81.5788011,31.488 78.8181621,30.3331782 76.5768175,28.0235 C74.335473,25.7138218 73.2148175,22.9326829 73.2148175,19.68 C73.2148175,16.4273171 74.3423063,13.6393449 76.5973175,11.316 C78.8523288,8.99265505 81.6061346,7.831 84.8588175,7.831 Z M84.8588175,28.249 C87.1274955,28.249 89.0613095,27.4221749 90.6603175,25.7685 C92.2593255,24.1148251 93.0588175,22.1195117 93.0588175,19.7825 C93.0588175,17.4454883 92.245659,15.4228419 90.6193175,13.7145 C88.9929761,12.0061581 87.0659953,11.152 84.8383175,11.152 C82.6106397,11.152 80.6904923,12.0061581 79.0778175,13.7145 C77.4651428,15.4228419 76.6588175,17.4523216 76.6588175,19.803 C76.6588175,22.1536784 77.4378097,24.1489918 78.9958175,25.789 C80.5538253,27.4290082 82.5081391,28.249 84.8588175,28.249 Z" id="logo/Light"></path>
            </g>
        </g>
    </g>
</svg>