<?xml version="1.0" encoding="UTF-8"?>
<svg width="35px" height="35px" viewBox="0 0 35 35" version="1.1" xmlns="http://www.w3.org/2000/svg" xmlns:xlink="http://www.w3.org/1999/xlink">
    <!-- Generator: Sketch 47.1 (45422) - http://www.bohemiancoding.com/sketch -->
    <title>Medium@1x</title>
    <desc>Created with Sketch.</desc>
    <defs></defs>
    <g id="Page-1" stroke="none" stroke-width="1" fill="none" fill-rule="evenodd">
        <g id="FRONTENT-ZADANIE2" transform="translate(-1152.000000, -687.000000)" fill="#FFFFFF">
            <g id="//HEADER" transform="translate(132.000000, 133.000000)">
                <g id="social-media" transform="translate(669.000000, 509.000000)">
                    <g id="social-media-icon" transform="translate(238.000000, 45.000000)">
                        <g id="Medium" transform="translate(113.297297, 0.000000)">
                            <path d="M3,0 L31.5945946,0 L31.5945946,-4.4408921e-16 C33.2514488,3.66629817e-15 34.5945946,1.34314575 34.5945946,3 L34.5945946,31.5945946 L34.5945946,31.5945946 C34.5945946,33.2514488 33.2514488,34.5945946 31.5945946,34.5945946 L3,34.5945946 L3,34.5945946 C1.34314575,34.5945946 3.43777239e-15,33.2514488 -4.4408921e-16,31.5945946 L0,3 L-4.4408921e-16,3 C-6.46995335e-16,1.34314575 1.34314575,-1.39730022e-16 3,-4.4408921e-16 L3,0 Z M14.0319994,11.6805486 C14.0319994,11.6689025 14.0087072,11.6339643 13.9970612,11.6223183 L8.04591998,8.64092463 C7.88287501,8.55940215 7.71983005,8.4662336 7.53349295,8.4662336 C7.21904909,8.4662336 7.07929626,8.73409318 7.07929626,9.0252449 L7.07929626,22.3017634 C7.07929626,22.6511455 7.33550978,23.070404 7.66159971,23.2334489 L13.0770217,25.946983 C13.1934824,26.0052133 13.3215892,26.0401515 13.461342,26.0401515 C13.8573083,26.0401515 14.0319994,25.7024155 14.0319994,25.3413874 L14.0319994,11.6805486 Z M14.7773478,12.8568016 L14.7773478,19.8444429 L20.9963486,22.9422972 L14.7773478,12.8568016 Z M27.9490517,13.0664308 L21.6601745,23.2800332 L26.7960909,25.8421684 C26.9591358,25.9353369 27.1454729,25.9935673 27.3434561,25.9935673 C27.7277764,25.9935673 27.9490517,25.7257077 27.9490517,25.3413874 L27.9490517,13.0664308 Z M27.9141135,11.6689025 C27.9141135,11.6339643 27.8908214,11.6106722 27.8675292,11.5990261 L21.5670059,8.45458753 C21.4738374,8.40800325 21.3690228,8.38471112 21.2642082,8.38471112 C21.0196407,8.38471112 20.7867193,8.50117181 20.6586126,8.71080105 L16.8852863,14.8482793 L21.4272531,22.231887 C21.8930959,21.4865386 27.9141135,11.7154868 27.9141135,11.6689025 Z" id="Combined-Shape"></path>
                        </g>
                    </g>
                </g>
            </g>
        </g>
    </g>
</svg>