<?xml version="1.0" encoding="UTF-8"?>
<svg width="35px" height="35px" viewBox="0 0 35 35" version="1.1" xmlns="http://www.w3.org/2000/svg" xmlns:xlink="http://www.w3.org/1999/xlink">
    <!-- Generator: Sketch 47.1 (45422) - http://www.bohemiancoding.com/sketch -->
    <title>Telegram@1x</title>
    <desc>Created with Sketch.</desc>
    <defs></defs>
    <g id="Page-1" stroke="none" stroke-width="1" fill="none" fill-rule="evenodd">
        <g id="FRONTENT-ZADANIE2" transform="translate(-1267.000000, -687.000000)" fill="#FFFFFF">
            <g id="//HEADER" transform="translate(132.000000, 133.000000)">
                <g id="social-media" transform="translate(669.000000, 509.000000)">
                    <g id="social-media-icon" transform="translate(238.000000, 45.000000)">
                        <g id="Telegram" transform="translate(228.324324, 0.000000)">
                            <path d="M3,0 L31.5945946,0 L31.5945946,-4.4408921e-16 C33.2514488,3.66629817e-15 34.5945946,1.34314575 34.5945946,3 L34.5945946,31.5945946 L34.5945946,31.5945946 C34.5945946,33.2514488 33.2514488,34.5945946 31.5945946,34.5945946 L3,34.5945946 L3,34.5945946 C1.34314575,34.5945946 3.43777239e-15,33.2514488 -4.4408921e-16,31.5945946 L0,3 L-4.4408921e-16,3 C-6.46995335e-16,1.34314575 1.34314575,-1.39730022e-16 3,-4.4408921e-16 L3,0 Z M21.3713961,26.8108108 C21.4690054,26.8108108 21.5671167,26.7915211 21.6600062,26.7523294 C21.8941881,26.6536356 22.0636989,26.4417553 22.111198,26.188642 L25.0658868,10.4324401 C25.0717113,10.4035567 25.0758285,10.374469 25.0782386,10.3452794 C25.0817534,10.3043526 25.0819542,10.2634258 25.0791424,10.2230093 C25.067594,10.0622619 25.0063372,9.90447435 24.8948698,9.77505996 C24.8823171,9.760261 24.8690616,9.7460744 24.855103,9.732194 C24.7205388,9.59808476 24.5481159,9.52541675 24.3725799,9.51480232 C24.3423531,9.51306727 24.3119255,9.51306727 24.2815984,9.51490438 C24.196843,9.52021159 24.1127906,9.54001159 24.0333575,9.57430436 L6.52876192,16.6533122 C6.24035264,16.7699689 6.05196274,17.0544152 6.05407158,17.3697862 C6.05618042,17.6851572 6.24838633,17.9669499 6.5382015,18.0796262 L11.1418041,19.8686678 L12.4302063,24.8311177 C12.4934715,25.0747392 12.6707147,25.2712082 12.9040933,25.3563278 C13.1377731,25.4412432 13.3971607,25.4041948 13.5984045,25.2571237 L16.1643634,23.3806151 L20.948523,26.6788449 C21.075154,26.7661077 21.2227729,26.8108108 21.3713961,26.8108108 Z" id="Combined-Shape"></path>
                        </g>
                    </g>
                </g>
            </g>
        </g>
    </g>
</svg>