<?xml version="1.0" encoding="UTF-8"?>
<svg width="34px" height="35px" viewBox="0 0 34 35" version="1.1" xmlns="http://www.w3.org/2000/svg" xmlns:xlink="http://www.w3.org/1999/xlink">
    <!-- Generator: Sketch 47.1 (45422) - http://www.bohemiancoding.com/sketch -->
    <title>Twitter@1x</title>
    <desc>Created with Sketch.</desc>
    <defs></defs>
    <g id="Page-1" stroke="none" stroke-width="1" fill="none" fill-rule="evenodd">
        <g id="FRONTENT-ZADANIE2" transform="translate(-1039.000000, -687.000000)" fill-rule="nonzero" fill="#FFFFFF">
            <g id="//HEADER" transform="translate(132.000000, 133.000000)">
                <g id="social-media" transform="translate(669.000000, 509.000000)">
                    <g id="social-media-icon" transform="translate(238.000000, 45.000000)">
                        <g id="Twitter" transform="translate(0.000000, 0.864865)">
                            <path d="M30.3567568,0 L3.37297297,0 C1.51783784,0 0,1.51783784 0,3.37297297 L0,30.3567568 C0,32.2118919 1.51783784,33.7297297 3.37297297,33.7297297 L30.3567568,33.7297297 C32.2118919,33.7297297 33.7297297,32.2118919 33.7297297,30.3567568 L33.7297297,3.37297297 C33.7297297,1.51783784 32.2118919,0 30.3567568,0 Z M26.4778378,12.3113514 C26.3091892,20.0691892 21.4183784,25.4659459 13.9978378,25.8032432 C10.9621622,25.9718919 8.76972973,24.96 6.74594595,23.7794595 C8.93837838,24.1168229 11.8054054,23.2735797 13.3232432,21.9243243 C11.1308108,21.7556757 9.78162162,20.5751351 9.10702703,18.72 C9.78162162,18.8886486 10.4562162,18.72 10.9621622,18.72 C8.93837838,18.0454054 7.58918919,16.8648649 7.42054054,14.1664865 C7.92648649,14.5037838 8.60108108,14.6724324 9.27567568,14.6724324 C7.75783784,13.8291892 6.74594595,10.6248649 7.92648649,8.60108108 C10.1189189,10.9621622 12.8172973,12.9859459 17.2021622,13.3232432 C16.0216216,8.60108108 22.4303364,6.07135135 24.9600661,9.27567568 C26.1406067,9.10702703 26.9838499,8.60108108 27.8270932,8.26378378 C27.4897959,9.44432432 26.8152013,10.1189189 25.971958,10.7935135 C26.8152013,10.6248649 27.6584445,10.4562162 28.3330391,10.1189189 C28.1643243,10.9621622 27.3210811,11.6367568 26.4778378,12.3113514 Z" id="Shape"></path>
                        </g>
                    </g>
                </g>
            </g>
        </g>
    </g>
</svg>